<svg width="53" height="34" viewBox="0 0 53 34" fill="none" xmlns="http://www.w3.org/2000/svg">
<path d="M48.5833 4.45835H33.125V0.041687H48.5833V4.45835ZM52.3949 26.5417C51.4188 29.4059 47.9142 33.1667 41.1302 33.1667C34.3418 33.1667 28.843 29.3485 28.843 20.6344C28.843 11.9998 33.9774 7.56106 40.9138 7.56106C47.7199 7.56106 51.876 11.4963 52.7836 17.3351C52.9558 18.4526 53.0243 19.9586 52.9934 22.061H35.2671C35.5542 29.1519 42.9587 29.375 45.3989 26.5417H52.3949ZM35.4217 17.7084H46.386C46.1542 14.2921 43.8774 12.8081 40.916 12.8081C37.6786 12.8081 35.8876 14.5041 35.4217 17.7084ZM14.2791 33.1402H0V0.0880618H15.3545C27.4474 0.266937 27.677 12.1102 21.3612 15.3388C29.0042 18.1213 29.2604 33.1402 14.2791 33.1402ZM6.625 13.2917H14.5397C20.0782 13.2917 20.9571 6.66669 13.8507 6.66669H6.625V13.2917ZM14.1135 19.9167H6.625V26.577H14.003C20.7495 26.577 20.3365 19.9167 14.1135 19.9167Z" fill="#88AA55"/>
</svg>
