<svg width="266" height="261" viewBox="0 0 266 261" fill="none" xmlns="http://www.w3.org/2000/svg">
<path fill-rule="evenodd" clip-rule="evenodd" d="M133.11 0C59.5036 0 0 59.8123 0 133.808C0 192.957 38.126 243.025 91.0169 260.746C97.6297 262.078 100.052 257.867 100.052 254.324C100.052 251.222 99.8339 240.589 99.8339 229.51C62.8059 237.487 55.0951 213.56 55.0951 213.56C49.1445 198.052 40.3275 194.066 40.3275 194.066C28.2083 185.869 41.2103 185.869 41.2103 185.869C54.6538 186.756 61.7079 199.604 61.7079 199.604C73.6064 219.984 92.7798 214.226 100.493 210.68C101.594 202.04 105.122 196.059 108.869 192.737C79.3364 189.635 48.2645 178.115 48.2645 126.718C48.2645 112.096 53.5503 100.134 61.9258 90.8303C60.6044 87.508 55.9752 73.7703 63.25 55.3834C63.25 55.3834 74.4892 51.8382 99.8312 69.1185C110.681 66.1895 121.87 64.6995 133.11 64.687C144.349 64.687 155.806 66.2394 166.386 69.1185C191.731 51.8382 202.97 55.3834 202.97 55.3834C210.245 73.7703 205.613 87.508 204.292 90.8303C212.888 100.134 217.956 112.096 217.956 126.718C217.956 178.115 186.884 189.412 157.131 192.737C161.98 196.945 166.165 204.919 166.165 217.548C166.165 235.492 165.948 249.893 165.948 254.322C165.948 257.867 168.372 262.078 174.982 260.749C227.873 243.023 265.999 192.957 265.999 133.808C266.217 59.8123 206.496 0 133.11 0Z" fill="#88AA55"/>
</svg>
