<svg width="448" height="448" viewBox="0 0 448 448" fill="none" xmlns="http://www.w3.org/2000/svg">
<path d="M18.166 37.3437C19.6972 27.4181 27.4181 19.6972 37.3437 18.166C73.6466 12.5657 162.008 0 224 0C285.992 0 374.353 12.5657 410.656 18.166C420.582 19.6972 428.303 27.4181 429.834 37.3437C435.434 73.6466 448 162.008 448 224C448 285.992 435.434 374.353 429.834 410.656C428.303 420.582 420.582 428.303 410.656 429.834C374.353 435.434 285.992 448 224 448C162.008 448 73.6466 435.434 37.3437 429.834C27.4181 428.303 19.6972 420.582 18.166 410.656C12.5657 374.353 0 285.992 0 224C0 162.008 12.5657 73.6466 18.166 37.3437Z" fill="white"/>
<path d="M219.859 95.2582C221.509 92.8161 225.104 92.8161 226.754 95.2582L256.314 139.011C257.248 140.393 258.916 141.084 260.553 140.767L312.393 130.731C315.287 130.171 317.829 132.713 317.269 135.607L307.233 187.447C306.916 189.084 307.607 190.752 308.989 191.686L352.742 221.246C355.184 222.896 355.184 226.491 352.742 228.141L308.989 257.701C307.607 258.635 306.916 260.303 307.233 261.94L317.269 313.78C317.829 316.674 315.287 319.216 312.393 318.656L260.553 308.62C258.916 308.303 257.248 308.994 256.314 310.376L226.754 354.129C225.104 356.571 221.509 356.571 219.859 354.129L190.299 310.376C189.365 308.994 187.697 308.303 186.06 308.62L134.22 318.656C131.326 319.216 128.784 316.674 129.344 313.78L139.38 261.94C139.697 260.303 139.006 258.635 137.624 257.701L93.8712 228.141C91.4291 226.491 91.4291 222.896 93.8712 221.246L137.624 191.686C139.006 190.752 139.697 189.084 139.38 187.447L129.344 135.607C128.784 132.713 131.326 130.171 134.22 130.731L186.06 140.767C187.697 141.084 189.365 140.393 190.299 139.011L219.859 95.2582Z" fill="#443399"/>
</svg>
